<?xml version="1.0" standalone="no"?>
<!DOCTYPE svg PUBLIC "-//W3C//DTD SVG 20010904//EN"
 "http://www.w3.org/TR/2001/REC-SVG-20010904/DTD/svg10.dtd">
<svg version="1.0" xmlns="http://www.w3.org/2000/svg"
 width="225.000000pt" height="225.000000pt" viewBox="0 0 225.000000 225.000000"
 preserveAspectRatio="xMidYMid meet">

<g transform="translate(0.000000,225.000000) scale(0.100000,-0.100000)"
fill="#000000" stroke="none">
<path d="M950 2125 c0 -83 11 -73 -97 -94 -28 -6 -74 -19 -103 -30 l-51 -19
-23 36 c-13 20 -30 49 -40 65 -9 15 -21 27 -26 27 -17 0 -190 -104 -190 -114
0 -6 16 -37 35 -70 20 -32 35 -59 33 -60 -2 -1 -44 -41 -95 -90 -69 -66 -96
-86 -105 -79 -31 24 -110 63 -119 58 -18 -11 -110 -178 -105 -190 2 -7 31 -28
64 -46 l60 -32 -19 -56 c-11 -31 -25 -86 -33 -121 l-13 -65 -61 -3 c-85 -4
-79 -22 7 -22 l70 0 7 48 c4 26 20 87 35 137 15 49 27 90 26 91 -1 1 -30 18
-65 38 l-62 37 15 29 c8 16 30 54 48 84 l33 54 69 -37 69 -38 42 49 c23 28 66
70 96 95 29 25 54 49 56 54 2 4 -13 36 -33 70 -20 34 -35 63 -33 64 23 19 163
93 169 89 4 -2 23 -32 41 -65 23 -41 38 -58 48 -55 34 12 188 54 224 62 l39 9
-2 71 c-2 78 1 84 56 78 18 -2 35 1 38 6 4 6 -15 10 -49 10 l-56 0 0 -75z"/>
<path d="M1112 2178 c-15 -18 1 -41 24 -36 23 4 26 41 3 46 -9 1 -21 -3 -27
-10z"/>
<path d="M1304 2135 c-9 -23 3 -45 25 -45 20 0 37 32 26 50 -9 15 -45 12 -51
-5z"/>
<path d="M1511 2057 c-14 -17 -6 -43 16 -51 22 -9 45 13 41 38 -4 25 -40 33
-57 13z"/>
<path d="M935 1959 c-206 -30 -404 -141 -535 -301 -55 -68 -145 -241 -154
-298 -5 -33 -5 -33 8 7 38 114 123 262 147 256 4 -2 6 3 4 10 -7 16 48 79 60
70 6 -5 7 -4 3 1 -8 10 41 53 55 48 5 -1 6 1 3 6 -7 12 79 73 89 64 5 -4 5 -2
2 4 -9 15 130 78 229 104 44 11 124 24 179 29 83 7 89 8 35 8 -36 0 -92 -3
-125 -8z"/>
<path d="M1155 1953 c61 -8 185 -45 179 -54 -3 -5 1 -6 9 -3 34 13 306 -163
291 -188 -3 -5 -1 -7 4 -6 19 5 113 -124 156 -215 64 -136 81 -209 81 -357 0
-92 -5 -142 -19 -190 -27 -97 -76 -209 -115 -265 -64 -93 -108 -138 -223 -228
-67 -53 -237 -119 -342 -134 -50 -6 -60 -13 -21 -13 51 0 158 31 243 71 235
109 392 293 464 545 32 113 32 315 0 428 -59 207 -185 378 -358 489 -110 70
-274 129 -349 126 l-30 -2 30 -4z"/>
<path d="M1695 1944 c-19 -20 -16 -43 8 -58 37 -23 77 35 41 61 -23 17 -29 16
-49 -3z"/>
<path d="M1856 1761 c-21 -23 -14 -57 14 -66 23 -7 36 -1 50 25 8 15 6 24 -10
40 -25 25 -32 25 -54 1z"/>
<path d="M520 1721 c0 -6 4 -13 10 -16 6 -3 7 1 4 9 -7 18 -14 21 -14 7z"/>
<path d="M905 1719 c-139 -45 -232 -103 -313 -196 -44 -52 -112 -165 -112
-189 0 -5 -7 -21 -14 -37 -14 -26 -13 -28 30 -70 49 -45 93 -62 111 -41 9 9 4
11 -25 7 -33 -4 -41 0 -75 34 l-37 39 16 52 c11 33 23 52 33 52 8 0 38 -21 66
-47 l50 -48 -45 48 c-25 27 -53 52 -63 56 -16 6 -14 13 22 68 97 150 253 250
426 273 l60 7 -50 1 c-27 0 -63 -4 -80 -9z"/>
<path d="M1120 1721 c83 -12 181 -47 247 -90 135 -87 251 -257 262 -383 1 -5
5 -8 10 -8 6 0 6 13 0 33 -34 126 -124 265 -213 331 -58 44 -181 106 -209 106
-10 0 -16 3 -14 8 3 4 -27 8 -67 9 l-71 1 55 -7z"/>
<path d="M1485 1669 c-4 -6 -5 -12 -2 -15 2 -3 7 2 10 11 7 17 1 20 -8 4z"/>
<path d="M965 1651 c-26 -11 -73 -57 -96 -96 -30 -49 -22 -51 22 -7 35 37 46
42 84 42 80 0 148 -85 181 -226 22 -97 20 -270 -5 -366 -50 -194 -137 -266
-252 -207 -23 11 -43 18 -45 16 -3 -2 13 -23 35 -45 49 -51 94 -61 155 -38 24
9 52 26 61 36 14 16 31 20 76 20 88 0 112 15 67 44 -33 20 -72 31 -64 17 4 -6
2 -11 -3 -11 -14 0 -14 3 1 35 11 25 36 35 121 51 20 3 40 11 43 16 9 13 -7
413 -16 428 -4 7 -29 18 -56 25 -52 13 -52 13 -84 97 -47 122 -150 199 -225
169z m333 -316 c16 -15 31 -375 16 -375 -5 -1 -29 -5 -53 -9 l-43 -9 8 52 c5
28 9 122 9 208 l0 157 25 -6 c14 -3 31 -11 38 -18z"/>
<path d="M599 1563 c-13 -16 -12 -17 4 -4 9 7 17 15 17 17 0 8 -8 3 -21 -13z"/>
<path d="M1993 1533 c-7 -2 -13 -18 -13 -34 0 -22 7 -32 25 -41 22 -10 29 -9
47 10 19 18 20 25 10 47 -11 24 -38 31 -69 18z"/>
<path d="M1462 1418 c-16 -16 -15 -43 3 -58 8 -7 15 -22 15 -34 0 -13 11 -33
24 -45 19 -18 32 -21 67 -18 l44 4 -46 1 c-30 1 -52 8 -62 20 -21 23 -22 68
-2 76 28 10 11 66 -20 66 -6 0 -16 -5 -23 -12z m46 -25 c5 -17 -26 -29 -40
-15 -6 6 -7 15 -3 22 9 14 37 9 43 -7z"/>
<path d="M1102 1358 c7 -15 15 -23 17 -17 2 6 -4 18 -13 27 -15 15 -15 15 -4
-10z"/>
<path d="M220 1239 c-24 -154 3 -314 80 -474 84 -173 207 -298 375 -381 113
-56 221 -83 349 -89 l101 -4 -87 9 c-108 10 -242 38 -246 50 -2 5 -10 6 -19 3
-11 -4 -14 -2 -9 5 4 7 2 10 -6 7 -20 -8 -145 56 -208 105 -67 53 -72 60 -57
80 9 12 9 13 -3 2 -18 -15 -34 -16 -24 0 4 6 3 8 -3 5 -6 -4 -26 13 -44 38
-19 25 -42 55 -52 68 -36 43 -106 203 -123 282 -20 91 -23 279 -6 338 6 20 7
37 2 37 -4 0 -13 -36 -20 -81z"/>
<path d="M1122 1295 c0 -16 2 -22 5 -12 2 9 2 23 0 30 -3 6 -5 -1 -5 -18z"/>
<path d="M1020 1286 c-13 -17 -6 -36 15 -36 19 0 26 27 11 39 -10 8 -17 7 -26
-3z"/>
<path d="M653 1273 c-18 -7 -16 -52 3 -60 23 -9 51 23 38 44 -12 19 -23 24
-41 16z m30 -28 c1 -5 -6 -11 -15 -13 -11 -2 -18 3 -18 13 0 17 30 18 33 0z"/>
<path d="M1134 1170 c0 -52 1 -74 3 -47 2 26 2 68 0 95 -2 26 -3 4 -3 -48z"/>
<path d="M451 1219 c-1 -15 -4 -41 -7 -58 -5 -24 -3 -30 7 -26 22 8 93 -70 94
-103 0 -22 5 -28 28 -30 18 -2 29 2 34 14 9 23 -10 49 -36 49 -30 1 -111 83
-111 114 l0 24 23 -20 c25 -22 62 -39 52 -23 -3 6 -12 10 -19 10 -14 0 -51 37
-59 60 -3 9 -6 4 -6 -11z m144 -189 c0 -8 -8 -16 -17 -18 -13 -2 -18 3 -18 18
0 15 5 20 18 18 9 -2 17 -10 17 -18z"/>
<path d="M990 1190 c-15 -62 -10 -76 30 -85 20 -4 38 -18 51 -38 13 -23 19
-27 19 -14 0 29 -19 57 -46 67 -19 8 -24 16 -24 47 0 37 0 37 16 15 8 -12 26
-22 40 -22 33 0 31 18 -3 22 -22 2 -29 9 -31 31 -2 18 -9 27 -22 27 -13 0 -21
-13 -30 -50z"/>
<path d="M2045 1216 c-18 -27 -11 -52 17 -67 42 -23 90 45 56 79 -20 20 -56
14 -73 -12z"/>
<path d="M945 1200 c-18 -34 -18 -40 -5 -40 5 0 12 11 16 25 3 14 14 30 23 35
15 9 14 9 -1 10 -10 0 -24 -13 -33 -30z"/>
<path d="M1470 1223 c0 -17 14 -23 29 -14 9 6 10 11 2 15 -6 4 -11 1 -11 -6 0
-9 -3 -9 -10 2 -6 9 -10 10 -10 3z"/>
<path d="M1636 1205 l6 -25 -100 0 c-76 0 -102 3 -112 15 -28 34 -81 4 -60
-34 13 -25 42 -27 60 -5 11 12 33 15 119 12 l106 -3 -3 33 c-2 17 -8 32 -13
32 -5 0 -7 -11 -3 -25z m-218 -28 c2 -12 -3 -17 -17 -17 -12 0 -21 6 -21 13 0
31 32 34 38 4z"/>
<path d="M1595 1139 l-60 -6 57 -1 58 -2 -6 -47 c-24 -201 -114 -349 -275
-453 -90 -58 -167 -81 -289 -87 -178 -9 -309 39 -435 159 -77 73 -124 144
-155 232 -20 55 -39 168 -23 135 6 -13 11 -14 19 -5 9 9 4 15 -18 25 -23 10
-27 16 -17 22 10 6 10 9 2 9 -15 0 -26 -17 -14 -24 4 -3 9 -16 9 -28 0 -39 31
-143 62 -209 16 -36 55 -92 88 -127 32 -34 57 -65 55 -67 -2 -3 0 -3 3 0 4 2
20 -7 37 -21 83 -70 224 -115 357 -115 126 0 248 36 342 103 16 11 33 16 39
12 7 -4 9 -3 6 3 -7 11 46 66 56 58 4 -3 5 -2 3 1 -3 3 12 27 31 52 57 74 103
181 119 277 9 47 14 91 12 98 -2 8 -21 10 -63 6z"/>
<path d="M964 1081 c-9 -21 -20 -30 -47 -35 -60 -11 -57 -29 3 -22 29 3 54 7
55 8 1 2 5 20 9 41 8 44 -5 49 -20 8z"/>
<path d="M1510 1075 c-7 -8 -19 -15 -26 -15 -15 0 -19 -16 -6 -24 5 -3 19 8
31 24 22 31 23 42 1 15z"/>
<path d="M1117 1033 c-4 -24 -15 -47 -25 -52 -15 -9 -15 -10 0 -11 18 0 42 58
36 87 -2 10 -7 -1 -11 -24z"/>
<path d="M0 1020 c0 -5 28 -10 62 -12 l62 -3 12 -60 c6 -33 21 -87 32 -120 12
-33 20 -60 19 -61 -1 -1 -28 -16 -59 -34 -32 -17 -61 -36 -64 -41 -8 -14 95
-189 112 -189 9 0 41 14 72 31 l57 31 80 -80 c44 -43 86 -81 94 -84 12 -3 6
-19 -23 -72 -30 -53 -35 -70 -26 -81 7 -8 51 -36 98 -61 97 -53 88 -56 144 40
l28 46 37 -16 c21 -9 76 -24 123 -33 l85 -17 3 -77 3 -77 54 0 c30 0 55 5 55
10 0 6 -22 10 -50 10 l-49 0 3 71 c3 82 15 73 -139 111 -55 14 -109 29 -120
32 -17 6 -26 -3 -53 -54 -18 -33 -39 -60 -47 -60 -10 0 -148 72 -163 86 -2 1
12 30 32 64 20 33 36 63 36 65 0 2 -45 49 -101 103 l-100 98 -57 -33 c-31 -18
-62 -33 -68 -33 -14 0 -105 150 -98 162 3 4 32 22 65 39 45 24 58 36 54 48
-12 31 -54 186 -60 224 l-6 37 -69 0 c-39 0 -70 -4 -70 -10z"/>
<path d="M1465 984 c-9 -9 -14 -23 -11 -31 3 -8 6 -17 6 -19 0 -12 39 -1 54
15 13 14 14 20 4 28 -28 21 -37 23 -53 7z m35 -18 c0 -8 -4 -17 -9 -21 -12 -7
-24 12 -16 25 9 15 25 12 25 -4z"/>
<path d="M1548 963 c7 -3 16 -2 19 1 4 3 -2 6 -13 5 -11 0 -14 -3 -6 -6z"/>
<path d="M2012 898 c-17 -17 -15 -54 4 -73 40 -39 110 14 80 60 -15 23 -66 31
-84 13z"/>
<path d="M1630 800 c-9 -6 -10 -10 -3 -10 6 0 15 5 18 10 8 12 4 12 -15 0z"/>
<path d="M590 706 c0 -2 8 -10 18 -17 15 -13 16 -12 3 4 -13 16 -21 21 -21 13z"/>
<path d="M808 666 c-9 -44 7 -56 72 -56 77 0 78 18 3 22 -46 2 -59 7 -61 21
-3 14 5 17 52 17 30 0 58 5 61 10 4 6 -18 10 -58 10 -60 0 -65 -2 -69 -24z"/>
<path d="M962 653 l3 -38 63 -3 c36 -2 62 1 62 7 0 5 -24 11 -52 13 -41 2 -54
7 -56 21 -3 14 5 17 52 17 31 0 56 5 56 10 0 6 -29 10 -66 10 l-65 0 3 -37z"/>
<path d="M1138 683 c12 -2 32 -2 45 0 12 2 2 4 -23 4 -25 0 -35 -2 -22 -4z"/>
<path d="M1114 649 c-3 -6 -1 -16 6 -22 9 -9 11 -8 8 3 -2 11 10 16 52 21 l55
6 -57 1 c-32 1 -60 -3 -64 -9z"/>
<path d="M1882 628 c-17 -17 -15 -64 4 -82 33 -34 94 -7 94 42 0 43 -67 71
-98 40z"/>
<path d="M1146 618 c7 -11 82 -10 88 1 3 5 -16 8 -43 8 -27 -1 -47 -5 -45 -9z"/>
<path d="M1686 404 c-22 -21 -20 -60 4 -84 25 -25 41 -25 74 1 30 23 33 45 10
77 -18 26 -65 30 -88 6z"/>
<path d="M1452 244 c-28 -19 -30 -74 -4 -97 42 -39 112 -9 112 46 0 55 -61 84
-108 51z"/>
<path d="M1143 170 c-69 -28 -48 -133 27 -133 59 0 91 67 53 111 -22 25 -51
33 -80 22z"/>
</g>
</svg>
